<svg width="250" height="457" xmlns="http://www.w3.org/2000/svg" viewBox="0 0 250 457"><g fill="#fff"><path stroke="#fff" stroke-width="2.959" d="M2.32 140.502l-.723 173.88s-2.494 22.503 16.626 22.47c19.12-.03 16.812-22.524 16.812-22.524l.458-96.58s-1.61-17.956 14.25-17.982c15.343-.026 14.1 17.937 14.1 17.937l-.94 212.698s-2.08 25.15 20.613 25.116c22.693-.036 20.82-25.18 20.82-25.18l.747-166.25s-1.835-21.55 16.444-21.58c18.28-.03 16.268 21.526 16.268 21.526l-.402 82.79s-2.212 23.61 17.348 23.577c19.565-.033 17.547-23.636 17.547-23.636l.857-206.26z"/><path d="M5.835 353.605a17.955 17.955 0 0 1 25.496.032 18.206 18.206 0 0 1-.03 25.643 17.955 17.955 0 0 1-25.494-.032 18.206 18.206 0 0 1 .032-25.643z" class="a"/><path stroke="#fff" stroke-width="3.149" d="M55.76 141.37l-.233 49.685h37.92l.142-26.347s-1.828-17.965 16.134-17.99c17.38-.025 15.97 17.945 15.97 17.945l-.26 51.986h37.468v76.78h4.83v44.455h4.028l.643-126.824s-2.076-21.56 18.627-21.59c20.705-.03 18.423 21.536 18.423 21.536L209 293.83s-2.506 23.62 19.648 23.587c22.154-.033 19.87-23.644 19.87-23.644l.714-152.406z"/><path d="M225.817-.804a25 25 0 0 1 25 25v124.988a25 25 0 0 1-25 24.998H25.833c-13.874 0-25-11.248-25-24.998V24.194c0-13.873 11.125-24.998 25-24.998h199.984M38.334 136.686h174.992L157.08 61.69l-43.747 56.246L82.085 80.44z"/><path fill-rule="evenodd" d="M9.09 131.12h1.692v13.526h-1.69z"/></g></svg>