<svg xmlns="http://www.w3.org/2000/svg" id="svg2" viewBox="0 0 250 457" width="250px" height="457px"><defs id="defs4"></defs><g id="layer1"><g id="g14741"><g id="g14851"><g id="g4500" fill="#fff"><path id="path4836" stroke="#fff" stroke-width="2.959" d="M2.312 140.51L1.59 314.39s-2.494 22.502 16.625 22.47c19.12-.03 16.812-22.524 16.812-22.524l.458-96.58s-1.61-17.957 14.25-17.982c15.344-.026 14.1 17.937 14.1 17.937l-.94 212.7s-2.08 25.15 20.613 25.113c22.693-.036 20.82-25.18 20.82-25.18l.748-166.248s-1.836-21.55 16.444-21.58c18.28-.03 16.267 21.525 16.267 21.525l-.4 82.79s-2.214 23.61 17.346 23.576c19.56-.032 17.544-23.634 17.544-23.634l.856-206.26z"/><path id="path4840" d="M5.833 353.606a17.955 17.955 0 0 1 25.496.032 18.206 18.206 0 0 1-.035 25.643 17.955 17.955 0 0 1-25.496-.03 18.206 18.206 0 0 1 .032-25.642z" class="a"/><path id="path4836-2" stroke="#fff" stroke-width="3.149" d="M55.76 141.376l-.233 49.683h37.92l.14-26.35s-1.822-17.965 16.14-17.99c17.378-.025 15.97 17.945 15.97 17.945l-.26 51.986h37.468v76.783h4.83v44.456h4.028l.64-126.826s-2.075-21.56 18.63-21.59c20.703-.03 18.42 21.536 18.42 21.536L209 293.835s-2.506 23.62 19.648 23.587c22.154-.03 19.87-23.642 19.87-23.642l.714-152.4z"/><path id="path3723" stroke-width="12.938" d="M225.817-.804a24.998 24.998 0 0 1 24.998 24.998v124.99a24.998 24.998 0 0 1-24.998 25H25.83c-13.873 0-24.997-11.25-24.997-25V24.194C.833 10.32 11.957-.803 25.83-.803h199.987M38.33 136.687h174.988L157.072 61.69l-43.747 56.247L82.077 80.44z"/><path id="rect14716" fill-rule="evenodd" d="M9.087 131.126h1.69v13.525h-1.69z"/></g></g></g></g></svg>